<?xml version="1.0" encoding="utf-8"?>
<!-- Designed by Vexels.com - 2019 All Rights Reserved - https://vexels.com/terms-and-conditions/  -->
<svg version="1.1" id="Capa_1" xmlns="http://www.w3.org/2000/svg" xmlns:xlink="http://www.w3.org/1999/xlink" x="0px" y="0px"
	 viewBox="0 0 1200 1200" enable-background="new 0 0 1200 1200" xml:space="preserve">
<path fill="#FFFFFF" d="M843.169,1008.179l-98.406-194.13c-6.647-13.123-19.915-21.278-34.626-21.278h-94.795V50h-30.681v742.771
	h-94.795c-14.711,0-27.985,8.155-34.631,21.273l-98.401,194.135c-6.147,12.125-5.573,26.287,1.543,37.872
	c7.121,11.59,19.485,18.507,33.083,18.507h109.048c7.427,48.297,49.147,85.442,99.493,85.442c50.341,0,92.061-37.146,99.488-85.442
	h109.048c13.598,0,25.962-6.916,33.078-18.502C848.737,1034.471,849.316,1020.309,843.169,1008.179z M600.001,1119.319
	c-33.382,0-61.34-23.468-68.362-54.761h136.72C661.339,1095.851,633.383,1119.319,600.001,1119.319z M815.474,1029.997
	c-0.714,1.164-2.826,3.88-6.936,3.88H391.46c-4.11,0-6.222-2.712-6.936-3.88c-0.719-1.168-2.182-4.28-0.325-7.945l98.401-194.14
	c1.398-2.752,4.18-4.459,7.266-4.459h220.272c3.081,0,5.863,1.708,7.261,4.459l98.406,194.14
	C817.661,1025.717,816.193,1028.828,815.474,1029.997z"/>
</svg>
